[Header]
FileType HTR
DataType HTRS
FileVersion 1
NumSegments 48
NumFrames 3
DataFrameRate 30
EulerRotationOrder ZYX
CalibrationUnits mm
RotationUnits Degrees
GlobalAxisofGravity Y
BoneLengthAxis Y
ScaleFactor 1.0
[SegmentNames&Hierarchy]
Wolf	GLOBAL
Becken	Wolf
Bauch	Becken
Bauch_001	Bauch
Brust	Bauch_001
Hals	Brust
Kopf_002	Hals
Kopf	Kopf_002
Unterkiefer	Kopf
Hals_fett	Unterkiefer
Maulunten	Unterkiefer
Mauloben	Kopf
MundW_L	Kopf
MundW_R	Kopf
Augen_con	Kopf
IK_Aug_R	Augen_con
IK_Aug_L	Augen_con
Aug_R	Kopf
aug_L	Kopf
Ohr_L	Kopf
Ohr_R	Kopf
Braun_O_L	Kopf
Braun_O_R	Kopf
aug_lied_O_L	Kopf
aug_lied_O_R	Kopf
aug_lied_U_L	Kopf
aug_lied_U_R	Kopf
Bauch_003	Brust
Schalterplatte_L	Bauch_003
Oberarm_L	Schalterplatte_L
Unterarm_L	Oberarm_L
Vorderpfote_L	Unterarm_L
Schalterplatte_R	Bauch_003
Oberarm_R	Schalterplatte_R
Unterarm_R	Oberarm_R
Vorderpfote_R	Unterarm_R
Schwanz	Becken
Schwanz_001	Schwanz
Schwanz_002	Schwanz_001
Schwanz_003	Schwanz_002
Oberschenkel_L	Becken
Unterschenkel_L	Oberschenkel_L
Pfote1_L	Unterschenkel_L
Pfote2_L	Pfote1_L
Oberschenkel_R	Becken
Unterschenkel_R	Oberschenkel_R
Pfote1_R	Unterschenkel_R
Pfote2_R	Pfote1_R
[BasePosition]
Wolf	0	0	0	0	0	0	1
Becken	0	0	0	0	0	0	1
Bauch	0	0	0	0	0	0	1
Bauch_001	0	0	0	0	0	0	1
Brust	0	0	0	0	0	0	1
Hals	0	0	0	0	0	0	1
Kopf_002	0	0	0	0	0	0	1
Kopf	0	0	0	0	0	0	1
Unterkiefer	0	0	0	0	0	0	1
Hals_fett	0	0	0	0	0	0	1
Maulunten	0	0	0	0	0	0	1
Mauloben	0	0	0	0	0	0	1
MundW_L	0	0	0	0	0	0	1
MundW_R	0	0	0	0	0	0	1
Augen_con	0	0	0	0	0	0	1
IK_Aug_R	0	0	0	0	0	0	1
IK_Aug_L	0	0	0	0	0	0	1
Aug_R	0	0	0	0	0	0	1
aug_L	0	0	0	0	0	0	1
Ohr_L	0	0	0	0	0	0	1
Ohr_R	0	0	0	0	0	0	1
Braun_O_L	0	0	0	0	0	0	1
Braun_O_R	0	0	0	0	0	0	1
aug_lied_O_L	0	0	0	0	0	0	1
aug_lied_O_R	0	0	0	0	0	0	1
aug_lied_U_L	0	0	0	0	0	0	1
aug_lied_U_R	0	0	0	0	0	0	1
Bauch_003	0	0	0	0	0	0	1
Schalterplatte_L	0	0	0	0	0	0	1
Oberarm_L	0	0	0	0	0	0	1
Unterarm_L	0	0	0	0	0	0	1
Vorderpfote_L	0	0	0	0	0	0	1
Schalterplatte_R	0	0	0	0	0	0	1
Oberarm_R	0	0	0	0	0	0	1
Unterarm_R	0	0	0	0	0	0	1
Vorderpfote_R	0	0	0	0	0	0	1
Schwanz	0	0	0	0	0	0	1
Schwanz_001	0	0	0	0	0	0	1
Schwanz_002	0	0	0	0	0	0	1
Schwanz_003	0	0	0	0	0	0	1
Oberschenkel_L	0	0	0	0	0	0	1
Unterschenkel_L	0	0	0	0	0	0	1
Pfote1_L	0	0	0	0	0	0	1
Pfote2_L	0	0	0	0	0	0	1
Oberschenkel_R	0	0	0	0	0	0	1
Unterschenkel_R	0	0	0	0	0	0	1
Pfote1_R	0	0	0	0	0	0	1
Pfote2_R	0	0	0	0	0	0	1
[Wolf]
10	0	0	0	-90	-0	0	1.0
11	0	0	0	-90	-0	0	1.0
12	0	0	0	-90	-0	0	1.0
[Becken]
10	0	-0.3194340765	0.848788023	-1.91564709e-06	182.9165497	90	1.0
11	0	-0.4597299993	0.5376600623	-1.91564709e-06	184.3253479	90	1.0
12	0	-0.4286500514	0.5348120928	-1.91564709e-06	182.9154053	90	1.0
[Bauch]
10	1.117348552	7.68020243e-08	-0.3300308585	8.746882827e-07	-8.27148819	4.853698101e-07	1.0
11	0.9937454462	7.68020243e-08	-0.4949277639	8.746882827e-07	-8.746081352	4.853698101e-07	1.0
12	0.9956106544	7.68020243e-08	-0.4819452167	8.746882827e-07	-6.585346222	4.853698101e-07	1.0
[Bauch_001]
10	0.6431125998	4.020625255e-08	-0.03103097156	1.051260369e-06	1.933964849	4.625552208e-08	1.0
11	0.6472034454	4.020625255e-08	-0.04122363403	1.051260369e-06	1.917128205	4.625552208e-08	1.0
12	0.6416210532	4.020625255e-08	0.002569485456	1.051260369e-06	3.25754571	4.625552208e-08	1.0
[Brust]
10	1.068480611	8.38275227e-08	0.01385756582	-2.585561106e-06	13.26352787	-6.053789093e-06	1.0
11	1.06737709	8.38275227e-08	-0.002673529088	-2.585561106e-06	12.65581989	-6.053789093e-06	1.0
12	1.06856823	8.38275227e-08	0.01513175853	-2.585561106e-06	13.31031704	-6.053789093e-06	1.0
[Hals]
10	1.525534153	9.550224433e-08	0.9314593077	-1.920878731e-06	28.10752487	-4.161266588e-06	1.0
11	1.532425165	9.550224433e-08	0.9361768961	-1.920878731e-06	28.62431335	-4.161266588e-06	1.0
12	1.525000453	9.550224433e-08	0.9310978651	-1.920878731e-06	28.06772995	-4.161266588e-06	1.0
[Kopf_002]
10	1.752594829	3.013231981e-05	0.2651812136	0.006653484888	-165.1497192	0.002557621803	1.0
11	1.752594829	3.013231981e-05	0.2651812136	0.006653484888	-165.1497192	0.002557621803	1.0
12	1.752594829	3.013231981e-05	0.2651812136	0.006653484888	-165.1497192	0.002557621803	1.0
[Kopf]
10	1.042506576	7.839815908e-08	0.002578625455	0.07552599907	133.628952	-0.02069901861	1.0
11	1.042006135	7.839815908e-08	0.00400323607	0.07588394731	134.3189392	-0.02044103853	1.0
12	1.041505456	7.839815908e-08	0.002467373619	0.07549795508	133.5758057	-0.0207193885	1.0
[Unterkiefer]
10	0.6370446682	0.004552738741	0.4060619473	5.41272068	-68.38880157	-3.093541861	1.0
11	0.6370446682	0.004552738741	0.4060619473	5.41272068	-68.38880157	-3.093541861	1.0
12	0.6370446682	0.004552738741	0.4060619473	5.41272068	-68.38880157	-3.093541861	1.0
[Hals_fett]
10	0.2998236716	0.007747383788	0.1206455454	-5.071650982	-59.35961151	5.585565567	1.0
11	0.2998236716	0.007747383788	0.1206455454	-5.071650982	-59.35961151	5.585565567	1.0
12	0.2998236716	0.007747383788	0.1206455454	-5.071650982	-59.35961151	5.585565567	1.0
[Maulunten]
10	0.08317924291	-0.007747320924	-0.1206462979	-3.322208881	38.97270966	-0.8718757033	1.0
11	0.08317924291	-0.007747320924	-0.1206462979	-3.322208881	38.97270966	-0.8718757033	1.0
12	0.08317924291	-0.007747320924	-0.1206462979	-3.322208881	38.97270966	-0.8718757033	1.0
[Mauloben]
10	0.9101490974	0.0004056780017	0.400369823	-0.103267692	-28.77768707	0.0354314521	1.0
11	0.9101490974	0.0004056780017	0.400369823	-0.103267692	-28.77768707	0.0354314521	1.0
12	0.9101490974	0.0004056780017	0.400369823	-0.103267692	-28.77768707	0.0354314521	1.0
[MundW_L]
10	0.6730612516	-0.3618556559	0.3751283288	-179.8370972	-17.94884682	24.71397018	1.0
11	0.6730612516	-0.3618556559	0.3751283288	-179.8370972	-17.94884682	24.71397018	1.0
12	0.6730612516	-0.3618556559	0.3751283288	-179.8370972	-17.94884682	24.71397018	1.0
[MundW_R]
10	0.6732413769	0.362703532	0.3739836514	179.665329	-18.0242691	-24.69084167	1.0
11	0.6732413769	0.362703532	0.3739836514	179.665329	-18.0242691	-24.69084167	1.0
12	0.6732413769	0.362703532	0.3739836514	179.665329	-18.0242691	-24.69084167	1.0
[Augen_con]
10	1.807373762	-0.0001604075951	0.1835815907	0.09822228551	157.1545258	0.02385941148	1.0
11	1.807373762	-0.0001604075951	0.1835815907	0.09822228551	157.1545258	0.02385941148	1.0
12	1.807373762	-0.0001604075951	0.1835815907	0.09822228551	157.1545258	0.02385941148	1.0
[IK_Aug_R]
10	0.3461297154	0.2943200171	3.136494797e-07	-0.4194768965	-4.963055134	165.6946411	1.0
11	0.3461297154	0.2943200171	3.136494797e-07	-0.4194768965	-4.963055134	165.6946411	1.0
12	0.3461297154	0.2943200171	3.136494797e-07	-0.4194768965	-4.963055134	165.6946411	1.0
[IK_Aug_L]
10	0.3461298645	-0.2943200171	3.034585916e-07	0.4194775522	-4.963055611	-165.6946411	1.0
11	0.3461298645	-0.2943200171	3.034585916e-07	0.4194775522	-4.963055611	-165.6946411	1.0
12	0.3461298645	-0.2943200171	3.034585916e-07	0.4194775522	-4.963055611	-165.6946411	1.0
[Aug_R]
10	1.035154939	0.220780611	-0.09605786204	176.004776	-17.29164886	12.85548782	1.0
11	1.035154939	0.220780611	-0.09605786204	176.004776	-17.29164886	12.85548782	1.0
12	1.035154939	0.220780611	-0.09605786204	176.004776	-17.29164886	12.85548782	1.0
[aug_L]
10	1.035047412	-0.2215989083	-0.09536846727	-176.1891174	-17.33176422	-12.83101749	1.0
11	1.035047412	-0.2215989083	-0.09536846727	-176.1891174	-17.33176422	-12.83101749	1.0
12	1.035047412	-0.2215989083	-0.09536846727	-176.1891174	-17.33176422	-12.83101749	1.0
[Ohr_L]
10	0.6407766938	-0.365999192	-0.6893325448	-24.34924316	53.07766342	-15.02013397	1.0
11	0.6407766938	-0.365999192	-0.6893325448	-24.34924316	53.07766342	-15.02013397	1.0
12	0.6407766938	-0.365999192	-0.6893325448	-24.34924316	53.07766342	-15.02013397	1.0
[Ohr_R]
10	0.6409586668	0.3634999394	-0.6904851198	24.05786133	53.12416458	14.75857353	1.0
11	0.6409586668	0.3634999394	-0.6904851198	24.05786133	53.12416458	14.75857353	1.0
12	0.6409586668	0.3634999394	-0.6904851198	24.05786133	53.12416458	14.75857353	1.0
[Braun_O_L]
10	0.9801893234	-0.3706049621	-0.3292511106	-143.317215	-34.69634628	52.39493942	1.0
11	0.9801893234	-0.3706049621	-0.3292511106	-143.317215	-34.69634628	52.39493942	1.0
12	0.9801893234	-0.3706049621	-0.3292511106	-143.317215	-34.69634628	52.39493942	1.0
[Braun_O_R]
10	0.9803637862	0.369074285	-0.3304226696	143.182663	-34.83971786	-52.3467598	1.0
11	0.9803637862	0.369074285	-0.3304226696	143.182663	-34.83971786	-52.3467598	1.0
12	0.9803637862	0.369074285	-0.3304226696	143.182663	-34.83971786	-52.3467598	1.0
[aug_lied_O_L]
10	1.038882613	-0.3271434009	-0.1608110666	-175.8613434	-20.15596771	60.31667709	1.0
11	1.038882613	-0.3271434009	-0.1608110666	-175.8613434	-20.15596771	60.31667709	1.0
12	1.038882613	-0.3271434009	-0.1608110666	-175.8613434	-20.15596771	60.31667709	1.0
[aug_lied_O_R]
10	1.039044976	0.326115787	-0.1618431509	175.7657928	-20.31323814	-60.31218338	1.0
11	1.039044976	0.326115787	-0.1618431509	175.7657928	-20.31323814	-60.31218338	1.0
12	1.039044976	0.326115787	-0.1618431509	175.7657928	-20.31323814	-60.31218338	1.0
[aug_lied_U_L]
10	1.021916747	-0.3312866092	-0.1338487417	-159.8099365	-28.7482872	60.17462158	1.0
11	1.021916747	-0.3312866092	-0.1338487417	-159.8099365	-28.7482872	60.17462158	1.0
12	1.021916747	-0.3312866092	-0.1338487417	-159.8099365	-28.7482872	60.17462158	1.0
[aug_lied_U_R]
10	1.022078514	0.3303526044	-0.1348845363	159.7071381	-28.90531921	-60.15359879	1.0
11	1.022078514	0.3303526044	-0.1348845363	159.7071381	-28.90531921	-60.15359879	1.0
12	1.022078514	0.3303526044	-0.1348845363	159.7071381	-28.90531921	-60.15359879	1.0
[Bauch_003]
10	1.276869178	9.640092458e-08	-0.6079563498	-3.938861937e-06	-137.6799469	1.017604518e-05	1.0
11	1.276869178	9.640092458e-08	-0.6079563498	-3.938861937e-06	-137.6799469	1.017604518e-05	1.0
12	1.276869178	9.640092458e-08	-0.6079563498	-3.938861937e-06	-137.6799469	1.017604518e-05	1.0
[Schalterplatte_L]
10	0.8925708532	-0.3820799291	2.05982893e-08	-62.50282288	79.88607025	-87.80341339	1.0
11	0.8925708532	-0.3820799291	2.05982893e-08	-71.32440948	80.40583038	-95.78847504	1.0
12	0.8925708532	-0.3820799291	2.05982893e-08	-99.74031067	75.43030548	-126.5467682	1.0
[Oberarm_L]
10	1.418637037	6.984918599e-08	2.142041922e-07	-123.3003464	-59.91905975	142.3483887	1.0
11	1.418637037	6.984918599e-08	2.142041922e-07	-117.6866302	-62.63635254	133.2160034	1.0
12	1.418637037	6.984918599e-08	2.142041922e-07	-127.7917709	-58.32586288	146.1620789	1.0
[Unterarm_L]
10	2.028227091	1.769512892e-07	2.468004823e-07	10.98481464	49.39371109	17.91919136	1.0
11	2.028227091	1.769512892e-07	2.468004823e-07	10.69194031	51.58793259	16.98939133	1.0
12	2.028227091	1.769512892e-07	2.468004823e-07	16.63881493	58.29692459	24.07292747	1.0
[Vorderpfote_L]
10	1.705947876	2.095475793e-07	-1.816079021e-07	-6.004220009	-33.48065567	8.15731144	1.0
11	1.705947876	2.095475793e-07	-1.816079021e-07	-6.495949745	-32.45827103	8.709213257	1.0
12	1.705947876	2.095475793e-07	-1.816079021e-07	-7.965342999	-33.09226227	11.00689888	1.0
[Schalterplatte_R]
10	0.892570734	0.3820800781	8.883210967e-08	3.903970718	69.95582581	35.57966232	1.0
11	0.892570734	0.3820800781	8.883210967e-08	-1.944254279	65.62808228	29.61855888	1.0
12	0.892570734	0.3820800781	8.883210967e-08	11.87288284	73.84750366	45.66174698	1.0
[Oberarm_R]
10	1.418637633	1.862644972e-08	1.862644972e-08	85.82199097	-54.54998779	-102.2503967	1.0
11	1.418637633	1.862644972e-08	1.862644972e-08	85.38716125	-54.14367676	-99.50830078	1.0
12	1.418637633	1.862644972e-08	1.862644972e-08	98.53612518	-52.92455292	-115.8264771	1.0
[Unterarm_R]
10	2.028232336	9.313225746e-08	-3.247987479e-07	-0.6751468182	40.06969833	-1.258679032	1.0
11	2.028232336	9.313225746e-08	-3.247987479e-07	-0.09517993778	38.30662918	-0.1492861509	1.0
12	2.028232336	9.313225746e-08	-3.247987479e-07	-0.4046751261	41.69721603	-0.751736939	1.0
[Vorderpfote_R]
10	1.705937147	1.11758709e-07	-3.015156835e-07	12.35523796	-41.66364288	-1.626867533	1.0
11	1.705937147	1.11758709e-07	-3.015156835e-07	12.55580235	-38.94752502	-1.713906288	1.0
12	1.705937147	1.11758709e-07	-3.015156835e-07	14.21138287	-41.7664299	-3.732797384	1.0
[Schwanz]
10	-0.2085030079	-7.265629876e-09	0.1235342473	3.923942566	-107.6079712	-4.809524059	1.0
11	-0.1092632487	-7.265629876e-09	0.2801320851	3.197626352	-110.5342407	-4.121230602	1.0
12	-0.1055236533	-7.265629876e-09	0.2713145018	2.419565916	-115.3781967	-3.407060623	1.0
[Schwanz_001]
10	0.9104328156	6.635672634e-08	-8.707502275e-08	-0.4631878138	-34.59907532	-0.9720118642	1.0
11	0.9104328156	6.635672634e-08	-8.707502275e-08	-0.3941720724	-27.72636223	-0.9292290807	1.0
12	0.9104328156	6.635672634e-08	-8.707502275e-08	-0.3119838834	-19.87131691	-0.8701414466	1.0
[Schwanz_002]
10	0.7855660915	6.082701276e-08	-2.382875941e-08	0.7764559984	-18.88740921	-1.015165091	1.0
11	0.7855660915	6.082701276e-08	-2.382875941e-08	0.7550845146	-13.62266159	-0.9409255981	1.0
12	0.7855660915	6.082701276e-08	-2.382875941e-08	0.7417567372	-7.661774158	-0.8615683317	1.0
[Schwanz_003]
10	0.8350354433	5.987204332e-08	5.614651855e-08	8.880763289e-07	-11.60312271	-8.974389942e-08	1.0
11	0.8350354433	5.987204332e-08	5.614651855e-08	8.880763289e-07	-11.60312271	-8.974389942e-08	1.0
12	0.8350354433	5.987204332e-08	5.614651855e-08	8.880763289e-07	-11.60312271	-8.974389942e-08	1.0
[Oberschenkel_L]
10	0.4266009033	-0.5834400654	0.06229851767	12.185112	-47.5373497	-6.059159756	1.0
11	0.4476399422	-0.5834400654	0.04740491137	11.24373531	-40.2060585	-4.727251053	1.0
12	0.4249850512	-0.5834400654	0.06344798952	11.92723465	-45.85765839	-5.713947296	1.0
[Unterschenkel_L]
10	1.686439037	1.338776201e-07	-7.450580597e-08	-36.27561569	-67.32430267	45.91251373	1.0
11	1.686439037	1.338776201e-07	-7.450580597e-08	-32.50727081	-65.06485748	41.2966156	1.0
12	1.686439037	1.338776201e-07	-7.450580597e-08	-22.25075722	-54.48184204	30.6278801	1.0
[Pfote1_L]
10	1.190900326	9.313225746e-08	1.065200195e-07	1.458042383	43.91389084	-7.208781719	1.0
11	1.190900326	9.313225746e-08	1.065200195e-07	1.43813622	44.13040924	-7.237439156	1.0
12	1.190900326	9.313225746e-08	1.065200195e-07	1.141377568	47.03824234	-7.650132179	1.0
[Pfote2_L]
10	0.9876260161	9.313225746e-08	-5.820770088e-09	-2.830045223	2.17324996	-4.303133965	1.0
11	0.9876260161	9.313225746e-08	-5.820770088e-09	-2.826943874	1.414884448	-3.830405951	1.0
12	0.9876260161	9.313225746e-08	-5.820770088e-09	-1.405892611	3.992111921	-3.608921051	1.0
[Oberschenkel_R]
10	0.5219638944	0.5836999416	0.1302213669	-13.4251585	-50.86567688	7.463586807	1.0
11	0.5429936051	0.5836999416	0.1153213531	-19.32450104	-69.44034576	14.2870636	1.0
12	0.5203387141	0.5836999416	0.1313644201	-22.45642853	-72.89037323	17.58532715	1.0
[Unterschenkel_R]
10	1.68644917	1.234002411e-07	9.313230187e-09	-160.6244659	-127.657402	152.1220856	1.0
11	1.68644917	1.234002411e-07	9.313230187e-09	-170.7498627	-149.2284088	162.0283051	1.0
12	1.68644917	1.234002411e-07	9.313230187e-09	-174.7751465	-164.3475647	164.0232086	1.0
[Pfote1_R]
10	1.190900326	4.656610209e-09	5.355104804e-08	-3.487747669	49.00644684	4.200271606	1.0
11	1.190900326	4.656610209e-09	5.355104804e-08	-5.719135284	64.17607117	1.503587008	1.0
12	1.190900326	4.656610209e-09	5.355104804e-08	-2.842149973	37.54904556	5.239490032	1.0
[Pfote2_R]
10	0.9876259565	8.381903172e-08	1.071020961e-07	1.791363597	17.15736008	6.123186111	1.0
11	0.9876259565	8.381903172e-08	1.071020961e-07	-1.415904403	11.46096992	5.29566431	1.0
12	0.9876259565	8.381903172e-08	1.071020961e-07	1.973562837	39.89992905	7.410665512	1.0
[EndOfFile]
